<svg width="2000px" height="727px"
 viewBox="0.00 0.00 1491.84 542.45" xmlns="http://www.w3.org/2000/svg" xmlns:xlink="http://www.w3.org/1999/xlink">
<g id="graph0" class="graph" transform="scale(1.0 1.0) rotate(0) translate(4 538.45)">
<title>ContextMapGraph</title>
<polygon fill="white" stroke="transparent" points="-4,4 -4,-538.45 1487.84,-538.45 1487.84,4 -4,4"/>
<!-- GestionAsignaturasContext -->
<g id="node1" class="node">
<title>GestionAsignaturasContext</title>
<polygon fill="none" stroke="black" stroke-width="2" points="520.58,-376.16 510.95,-377.93 501.06,-379.6 490.96,-381.15 480.68,-382.58 470.26,-383.88 459.74,-385.05 449.16,-386.08 438.56,-386.97 427.97,-387.71 417.43,-388.3 406.97,-388.74 396.63,-389.02 386.43,-389.15 376.4,-389.12 366.58,-388.93 356.99,-388.58 347.65,-388.08 338.58,-387.43 329.81,-386.63 321.34,-385.68 313.2,-384.59 305.41,-383.37 297.96,-382.01 290.88,-380.52 284.18,-378.92 277.85,-377.2 271.9,-375.38 266.34,-373.46 261.18,-371.45 256.4,-369.36 252.02,-367.2 248.03,-364.97 244.44,-362.69 241.23,-360.36 238.42,-358 235.99,-355.6 233.94,-353.18 232.28,-350.75 230.99,-348.32 230.08,-345.89 229.54,-343.47 229.37,-341.07 229.57,-338.7 230.13,-336.36 231.06,-334.06 232.36,-331.8 234.02,-329.6 236.03,-327.45 238.41,-325.36 241.15,-323.34 244.26,-321.39 247.72,-319.51 251.54,-317.71 255.73,-315.99 260.27,-314.34 265.17,-312.79 270.43,-311.31 276.05,-309.92 282.01,-308.62 288.33,-307.41 294.98,-306.29 301.98,-305.25 309.3,-304.31 316.95,-303.45 324.91,-302.68 333.16,-302.01 341.71,-301.42 350.52,-300.92 359.59,-300.51 368.89,-300.19 378.41,-299.96 388.12,-299.81 398,-299.76 408.02,-299.79 418.16,-299.91 428.39,-300.12 438.67,-300.41 448.98,-300.79 459.27,-301.26 469.53,-301.82 479.7,-302.47 489.76,-303.2 499.66,-304.02 509.38,-304.93 518.86,-305.93 528.09,-307.01 537.01,-308.19 545.59,-309.45 553.8,-310.79 561.6,-312.22 568.96,-313.73 575.84,-315.33 582.22,-317.01 588.06,-318.76 593.33,-320.59 598.02,-322.5 602.11,-324.47 605.56,-326.51 608.37,-328.61 610.52,-330.77 612,-332.99 612.8,-335.25 612.92,-337.55 612.35,-339.89 611.1,-342.26 609.18,-344.65 606.58,-347.06 603.33,-349.48 599.42,-351.9 594.89,-354.31 589.76,-356.7 584.03,-359.08 577.75,-361.41 570.93,-363.71 563.6,-365.96 555.81,-368.15 547.57,-370.27 538.93,-372.32 529.92,-374.29 520.58,-376.16"/>
<text text-anchor="middle" x="406.73" y="-337.49" font-family="sans-serif" font-size="16.00">GestionAsignaturasContext</text>
</g>
<!-- GestionNotaseInformesContext -->
<g id="node2" class="node">
<title>GestionNotaseInformesContext</title>
<polygon fill="none" stroke="black" stroke-width="2" points="915.57,-175.43 922.03,-177.95 927.94,-180.51 933.27,-183.1 938,-185.71 942.1,-188.33 945.56,-190.94 948.35,-193.55 950.47,-196.14 951.9,-198.7 952.64,-201.23 952.67,-203.71 951.99,-206.13 950.61,-208.5 948.52,-210.79 945.73,-213.02 942.25,-215.16 938.1,-217.22 933.28,-219.19 927.81,-221.07 921.72,-222.85 915.03,-224.53 907.76,-226.11 899.93,-227.58 891.59,-228.95 882.76,-230.21 873.47,-231.37 863.76,-232.42 853.67,-233.37 843.24,-234.2 832.5,-234.94 821.49,-235.57 810.26,-236.1 798.84,-236.53 787.28,-236.86 775.61,-237.1 763.89,-237.24 752.13,-237.29 740.4,-237.26 728.71,-237.13 717.12,-236.92 705.66,-236.62 694.35,-236.25 683.24,-235.79 672.36,-235.25 661.74,-234.64 651.4,-233.95 641.37,-233.19 631.67,-232.36 622.33,-231.45 613.37,-230.47 604.8,-229.42 596.65,-228.3 588.93,-227.11 581.64,-225.85 574.81,-224.52 568.43,-223.12 562.52,-221.66 557.09,-220.13 552.14,-218.53 547.66,-216.87 543.67,-215.15 540.17,-213.36 537.15,-211.51 534.61,-209.61 532.55,-207.65 530.97,-205.63 529.87,-203.57 529.23,-201.46 529.07,-199.31 529.36,-197.11 530.11,-194.89 531.31,-192.63 532.96,-190.35 535.05,-188.05 537.57,-185.74 540.52,-183.43 543.9,-181.12 547.69,-178.82 551.89,-176.53 556.49,-174.28 561.5,-172.05 566.89,-169.87 572.67,-167.73 578.83,-165.66 585.35,-163.65 592.23,-161.72 599.47,-159.88 607.05,-158.12 614.95,-156.47 623.18,-154.92 631.72,-153.5 640.55,-152.19 649.66,-151.02 659.03,-149.98 668.65,-149.09 678.5,-148.34 688.56,-147.74 698.82,-147.3 709.24,-147.02 719.8,-146.9 730.48,-146.95 741.26,-147.15 752.11,-147.53 762.99,-148.06 773.88,-148.76 784.74,-149.62 795.56,-150.63 806.28,-151.8 816.88,-153.11 827.33,-154.57 837.58,-156.16 847.61,-157.89 857.38,-159.74 866.86,-161.7 876,-163.78 884.78,-165.95 893.16,-168.21 901.1,-170.55 908.59,-172.96 915.57,-175.43"/>
<text text-anchor="middle" x="729.73" y="-191.74" font-family="sans-serif" font-size="16.00">GestionNotaseInformesContext</text>
</g>
<!-- GestionAsignaturasContext&#45;&gt;GestionNotaseInformesContext -->
<g id="edge1" class="edge">
<title>GestionAsignaturasContext&#45;&gt;GestionNotaseInformesContext</title>
<path fill="none" stroke="black" stroke-width="2" d="M490.33,-303.08C538.37,-281.7 598.5,-254.94 646.48,-233.59"/>
<text text-anchor="middle" x="613.23" y="-265.76" font-family="sans-serif" font-size="12.00">Partnership</text>
</g>
<!-- GestionRecursosAcademicosContext -->
<g id="node3" class="node">
<title>GestionRecursosAcademicosContext</title>
<polygon fill="none" stroke="black" stroke-width="2" points="468.22,-211.73 462.64,-214.41 456.48,-217.03 449.76,-219.58 442.51,-222.04 434.74,-224.41 426.49,-226.68 417.78,-228.84 408.64,-230.88 399.1,-232.79 389.19,-234.57 378.94,-236.2 368.38,-237.69 357.53,-239.03 346.43,-240.21 335.11,-241.23 323.6,-242.09 311.93,-242.79 300.13,-243.32 288.23,-243.69 276.26,-243.9 264.24,-243.94 252.22,-243.83 240.21,-243.56 228.24,-243.14 216.34,-242.57 204.55,-241.87 192.88,-241.02 181.35,-240.04 170.01,-238.94 158.87,-237.73 147.95,-236.4 137.29,-234.97 126.89,-233.45 116.8,-231.83 107.02,-230.14 97.59,-228.38 88.52,-226.55 79.83,-224.67 71.54,-222.74 63.68,-220.76 56.26,-218.76 49.3,-216.72 42.82,-214.66 36.84,-212.58 31.36,-210.5 26.42,-208.41 22.02,-206.32 18.17,-204.24 14.9,-202.16 12.21,-200.1 10.1,-198.05 8.61,-196.02 7.72,-194.02 7.45,-192.03 7.8,-190.08 8.79,-188.15 10.4,-186.25 12.65,-184.39 15.53,-182.55 19.04,-180.75 23.18,-178.98 27.95,-177.25 33.32,-175.56 39.31,-173.91 45.88,-172.29 53.04,-170.72 60.77,-169.18 69.04,-167.69 77.84,-166.25 87.16,-164.86 96.96,-163.51 107.21,-162.22 117.91,-160.98 129.01,-159.8 140.48,-158.68 152.29,-157.62 164.42,-156.64 176.82,-155.72 189.45,-154.88 202.29,-154.13 215.29,-153.46 228.4,-152.87 241.6,-152.39 254.84,-152 268.08,-151.71 281.28,-151.53 294.39,-151.46 307.37,-151.5 320.18,-151.67 332.79,-151.96 345.14,-152.37 357.2,-152.91 368.94,-153.58 380.31,-154.38 391.27,-155.31 401.8,-156.38 411.85,-157.58 421.41,-158.91 430.43,-160.38 438.88,-161.97 446.76,-163.69 454.02,-165.54 460.66,-167.5 466.64,-169.57 471.96,-171.75 476.6,-174.04 480.54,-176.42 483.79,-178.88 486.33,-181.43 488.16,-184.04 489.28,-186.71 489.69,-189.43 489.39,-192.2 488.38,-194.99 486.69,-197.8 484.31,-200.62 481.25,-203.43 477.54,-206.23 473.19,-209 468.22,-211.73"/>
<text text-anchor="middle" x="244.73" y="-191.74" font-family="sans-serif" font-size="16.00">GestionRecursosAcademicosContext</text>
</g>
<!-- GestionAsignaturasContext&#45;&gt;GestionRecursosAcademicosContext -->
<g id="edge2" class="edge">
<title>GestionAsignaturasContext&#45;&gt;GestionRecursosAcademicosContext</title>
<path fill="none" stroke="black" stroke-width="2" d="M361.6,-300.25C341.76,-282.63 318.31,-261.83 297.64,-243.49"/>
<text text-anchor="middle" x="365.23" y="-265.76" font-family="sans-serif" font-size="12.00">Partnership</text>
</g>
<!-- GestionAsistenciaContext -->
<g id="node4" class="node">
<title>GestionAsistenciaContext</title>
<polygon fill="none" stroke="black" stroke-width="2" points="842.7,-66.93 837.75,-64.34 833.28,-61.71 829.3,-59.07 825.85,-56.41 822.92,-53.74 820.54,-51.09 818.72,-48.45 817.48,-45.84 816.81,-43.26 816.72,-40.73 817.22,-38.26 818.31,-35.84 819.99,-33.49 822.25,-31.22 825.09,-29.03 828.5,-26.92 832.46,-24.91 836.97,-22.99 842.01,-21.18 847.56,-19.46 853.6,-17.86 860.11,-16.36 867.06,-14.97 874.44,-13.69 882.2,-12.53 890.33,-11.47 898.79,-10.53 907.56,-9.7 916.6,-8.97 925.87,-8.36 935.35,-7.85 944.99,-7.44 954.78,-7.13 964.66,-6.93 974.62,-6.82 984.6,-6.8 994.59,-6.88 1004.55,-7.05 1014.44,-7.3 1024.23,-7.64 1033.9,-8.06 1043.42,-8.56 1052.75,-9.14 1061.87,-9.8 1070.76,-10.52 1079.39,-11.32 1087.75,-12.2 1095.8,-13.14 1103.53,-14.15 1110.93,-15.23 1117.98,-16.37 1124.66,-17.58 1130.97,-18.85 1136.88,-20.19 1142.4,-21.6 1147.52,-23.06 1152.22,-24.59 1156.5,-26.18 1160.37,-27.83 1163.82,-29.54 1166.84,-31.3 1169.43,-33.13 1171.6,-35.01 1173.35,-36.94 1174.68,-38.92 1175.59,-40.95 1176.09,-43.02 1176.18,-45.14 1175.87,-47.3 1175.15,-49.48 1174.04,-51.7 1172.54,-53.94 1170.66,-56.2 1168.4,-58.48 1165.76,-60.76 1162.77,-63.04 1159.41,-65.31 1155.7,-67.57 1151.65,-69.81 1147.26,-72.01 1142.54,-74.18 1137.5,-76.3 1132.14,-78.37 1126.47,-80.38 1120.51,-82.31 1114.25,-84.17 1107.72,-85.93 1100.91,-87.6 1093.85,-89.17 1086.54,-90.62 1078.99,-91.96 1071.21,-93.16 1063.23,-94.24 1055.05,-95.17 1046.7,-95.96 1038.18,-96.6 1029.51,-97.08 1020.71,-97.41 1011.81,-97.58 1002.81,-97.58 993.75,-97.42 984.65,-97.1 975.52,-96.61 966.4,-95.95 957.3,-95.14 948.26,-94.16 939.3,-93.03 930.44,-91.74 921.72,-90.31 913.17,-88.74 904.8,-87.03 896.65,-85.2 888.75,-83.24 881.13,-81.18 873.81,-79.01 866.82,-76.74 860.19,-74.39 853.94,-71.96 848.1,-69.47 842.7,-66.93"/>
<text text-anchor="middle" x="1004.73" y="-45.06" font-family="sans-serif" font-size="16.00">GestionAsistenciaContext</text>
</g>
<!-- GestionEstudiantesContext -->
<g id="node5" class="node">
<title>GestionEstudiantesContext</title>
<polygon fill="none" stroke="black" stroke-width="2" points="1397.97,-229.59 1388.67,-231.45 1379.09,-233.2 1369.29,-234.84 1359.29,-236.36 1349.14,-237.75 1338.87,-239.01 1328.51,-240.13 1318.12,-241.11 1307.71,-241.94 1297.33,-242.62 1287.01,-243.15 1276.78,-243.51 1266.67,-243.72 1256.71,-243.77 1246.93,-243.67 1237.35,-243.4 1228,-242.97 1218.89,-242.39 1210.06,-241.66 1201.51,-240.78 1193.27,-239.75 1185.35,-238.59 1177.75,-237.28 1170.5,-235.85 1163.6,-234.3 1157.06,-232.63 1150.88,-230.85 1145.08,-228.97 1139.65,-227 1134.6,-224.94 1129.93,-222.81 1125.64,-220.6 1121.73,-218.34 1118.2,-216.03 1115.05,-213.68 1112.29,-211.3 1109.9,-208.89 1107.88,-206.46 1106.24,-204.03 1104.98,-201.6 1104.08,-199.18 1103.56,-196.77 1103.4,-194.39 1103.62,-192.04 1104.2,-189.72 1105.15,-187.45 1106.47,-185.22 1108.15,-183.05 1110.21,-180.94 1112.63,-178.89 1115.42,-176.91 1118.58,-174.99 1122.11,-173.16 1126.01,-171.39 1130.28,-169.71 1134.92,-168.1 1139.92,-166.58 1145.29,-165.14 1151.03,-163.79 1157.12,-162.52 1163.56,-161.34 1170.35,-160.24 1177.49,-159.23 1184.95,-158.31 1192.74,-157.48 1200.84,-156.73 1209.24,-156.07 1217.92,-155.5 1226.86,-155.02 1236.05,-154.62 1245.47,-154.31 1255.1,-154.08 1264.9,-153.94 1274.86,-153.89 1284.95,-153.93 1295.13,-154.05 1305.39,-154.27 1315.68,-154.56 1325.97,-154.95 1336.24,-155.43 1346.44,-155.99 1356.54,-156.65 1366.49,-157.39 1376.28,-158.22 1385.85,-159.15 1395.17,-160.16 1404.2,-161.26 1412.92,-162.46 1421.27,-163.74 1429.23,-165.11 1436.76,-166.57 1443.83,-168.11 1450.41,-169.74 1456.47,-171.45 1461.98,-173.25 1466.92,-175.12 1471.27,-177.07 1475,-179.08 1478.1,-181.17 1480.56,-183.32 1482.35,-185.53 1483.49,-187.79 1483.95,-190.1 1483.73,-192.45 1482.84,-194.84 1481.29,-197.26 1479.06,-199.7 1476.19,-202.15 1472.67,-204.61 1468.53,-207.06 1463.78,-209.51 1458.45,-211.93 1452.56,-214.33 1446.13,-216.69 1439.19,-219.01 1431.77,-221.27 1423.9,-223.47 1415.63,-225.59 1406.97,-227.64 1397.97,-229.59"/>
<text text-anchor="middle" x="1279.73" y="-191.74" font-family="sans-serif" font-size="16.00">GestionEstudiantesContext</text>
</g>
<!-- GestionEstudiantesContext&#45;&gt;GestionAsistenciaContext -->
<g id="edge3" class="edge">
<title>GestionEstudiantesContext&#45;&gt;GestionAsistenciaContext</title>
<path fill="none" stroke="black" stroke-width="2" d="M1206.76,-156.15C1168.73,-136.14 1122.18,-111.65 1083.35,-91.23"/>
<text text-anchor="middle" x="1184.23" y="-119.12" font-family="sans-serif" font-size="12.00">Partnership</text>
</g>
<!-- GestionMatriculasContext -->
<g id="node6" class="node">
<title>GestionMatriculasContext</title>
<polygon fill="none" stroke="black" stroke-width="2" points="1089.57,-377.65 1080.03,-379.3 1070.27,-380.85 1060.33,-382.28 1050.25,-383.59 1040.06,-384.77 1029.81,-385.81 1019.53,-386.72 1009.26,-387.48 999.03,-388.09 988.88,-388.55 978.84,-388.86 968.95,-389.02 959.22,-389.02 949.7,-388.86 940.4,-388.55 931.35,-388.09 922.57,-387.48 914.09,-386.71 905.91,-385.8 898.06,-384.75 890.56,-383.55 883.41,-382.23 876.62,-380.77 870.2,-379.2 864.16,-377.51 858.51,-375.71 853.24,-373.81 848.37,-371.82 843.88,-369.74 839.79,-367.59 836.08,-365.37 832.77,-363.09 829.83,-360.75 827.28,-358.38 825.11,-355.97 823.31,-353.54 821.88,-351.09 820.81,-348.63 820.11,-346.18 819.76,-343.73 819.76,-341.3 820.11,-338.89 820.81,-336.51 821.85,-334.17 823.22,-331.88 824.93,-329.63 826.98,-327.45 829.35,-325.32 832.06,-323.26 835.1,-321.26 838.46,-319.34 842.16,-317.5 846.18,-315.74 850.52,-314.07 855.2,-312.48 860.19,-310.97 865.51,-309.56 871.14,-308.24 877.09,-307.01 883.35,-305.87 889.93,-304.82 896.8,-303.87 903.96,-303.02 911.42,-302.25 919.15,-301.58 927.14,-301 935.39,-300.52 943.88,-300.13 952.59,-299.83 961.51,-299.62 970.61,-299.51 979.87,-299.48 989.28,-299.55 998.81,-299.7 1008.42,-299.94 1018.1,-300.28 1027.82,-300.7 1037.54,-301.21 1047.23,-301.81 1056.86,-302.49 1066.4,-303.26 1075.8,-304.12 1085.05,-305.07 1094.09,-306.1 1102.9,-307.22 1111.44,-308.42 1119.68,-309.7 1127.57,-311.07 1135.09,-312.52 1142.21,-314.05 1148.88,-315.66 1155.08,-317.34 1160.79,-319.1 1165.97,-320.93 1170.59,-322.83 1174.65,-324.8 1178.11,-326.83 1180.96,-328.92 1183.18,-331.06 1184.77,-333.25 1185.7,-335.49 1185.98,-337.76 1185.6,-340.08 1184.57,-342.41 1182.88,-344.77 1180.53,-347.15 1177.55,-349.53 1173.94,-351.92 1169.71,-354.29 1164.89,-356.65 1159.5,-358.99 1153.55,-361.3 1147.07,-363.57 1140.1,-365.79 1132.65,-367.95 1124.77,-370.05 1116.49,-372.08 1107.83,-374.02 1098.85,-375.88 1089.57,-377.65"/>
<text text-anchor="middle" x="988.73" y="-337.49" font-family="sans-serif" font-size="16.00">GestionMatriculasContext</text>
</g>
<!-- GestionMatriculasContext&#45;&gt;GestionNotaseInformesContext -->
<g id="edge6" class="edge">
<title>GestionMatriculasContext&#45;&gt;GestionNotaseInformesContext</title>
<path fill="none" stroke="black" stroke-width="2" d="M918.98,-301.58C882.72,-281.45 838.46,-256.89 801.86,-236.57"/>
<text text-anchor="middle" x="901.23" y="-265.76" font-family="sans-serif" font-size="12.00">Partnership</text>
</g>
<!-- GestionMatriculasContext&#45;&gt;GestionAsistenciaContext -->
<g id="edge4" class="edge">
<title>GestionMatriculasContext&#45;&gt;GestionAsistenciaContext</title>
<path fill="none" stroke="black" stroke-width="2" d="M990.32,-299.49C991.92,-260.3 994.6,-199.45 997.73,-146.72 998.68,-130.73 999.89,-113.27 1001.03,-97.63"/>
<text text-anchor="middle" x="1032.23" y="-192.44" font-family="sans-serif" font-size="12.00">Partnership</text>
</g>
<!-- GestionMatriculasContext&#45;&gt;GestionEstudiantesContext -->
<g id="edge5" class="edge">
<title>GestionMatriculasContext&#45;&gt;GestionEstudiantesContext</title>
<path fill="none" stroke="black" stroke-width="2" d="M1064.43,-302.9C1103.58,-283.55 1151.57,-259.85 1192.3,-239.73"/>
<text text-anchor="middle" x="1177.23" y="-265.76" font-family="sans-serif" font-size="12.00">Partnership</text>
</g>
<!-- GestionPagosContext -->
<g id="node7" class="node">
<title>GestionPagosContext</title>
<polygon fill="none" stroke="black" stroke-width="2" points="1085.87,-520.39 1078.22,-522.24 1070.36,-524 1062.3,-525.64 1054.09,-527.15 1045.75,-528.55 1037.31,-529.81 1028.81,-530.93 1020.26,-531.91 1011.72,-532.74 1003.19,-533.42 994.71,-533.94 986.3,-534.31 978,-534.52 969.82,-534.57 961.78,-534.46 953.91,-534.19 946.23,-533.77 938.75,-533.19 931.5,-532.46 924.47,-531.57 917.7,-530.55 911.19,-529.38 904.95,-528.08 899,-526.65 893.33,-525.09 887.95,-523.42 882.88,-521.64 878.11,-519.76 873.65,-517.79 869.5,-515.73 865.67,-513.6 862.14,-511.4 858.93,-509.14 856.03,-506.83 853.45,-504.48 851.17,-502.09 849.21,-499.68 847.55,-497.26 846.21,-494.83 845.17,-492.39 844.43,-489.97 844,-487.57 843.88,-485.18 844.05,-482.83 844.53,-480.52 845.31,-478.24 846.39,-476.02 847.78,-473.85 849.47,-471.74 851.46,-469.69 853.75,-467.7 856.35,-465.79 859.25,-463.95 862.45,-462.19 865.96,-460.5 869.77,-458.9 873.88,-457.37 878.29,-455.94 883,-454.58 888,-453.31 893.3,-452.13 898.88,-451.04 904.74,-450.03 910.87,-449.11 917.27,-448.27 923.92,-447.53 930.82,-446.87 937.95,-446.3 945.3,-445.81 952.85,-445.41 960.59,-445.1 968.49,-444.88 976.55,-444.74 984.73,-444.69 993.02,-444.72 1001.38,-444.85 1009.81,-445.06 1018.26,-445.36 1026.72,-445.75 1035.15,-446.22 1043.53,-446.79 1051.83,-447.44 1060.01,-448.18 1068.04,-449.02 1075.91,-449.94 1083.56,-450.95 1090.99,-452.06 1098.14,-453.25 1105,-454.53 1111.54,-455.9 1117.73,-457.36 1123.54,-458.91 1128.94,-460.54 1133.92,-462.25 1138.45,-464.04 1142.51,-465.91 1146.08,-467.86 1149.15,-469.88 1151.69,-471.97 1153.71,-474.12 1155.19,-476.32 1156.12,-478.59 1156.49,-480.9 1156.32,-483.25 1155.59,-485.64 1154.31,-488.05 1152.48,-490.49 1150.12,-492.94 1147.23,-495.4 1143.83,-497.86 1139.93,-500.3 1135.55,-502.73 1130.71,-505.13 1125.42,-507.49 1119.72,-509.8 1113.63,-512.07 1107.17,-514.26 1100.37,-516.39 1093.26,-518.43 1085.87,-520.39"/>
<text text-anchor="middle" x="988.73" y="-482.53" font-family="sans-serif" font-size="16.00">GestionPagosContext</text>
</g>
<!-- GestionPagosContext&#45;&gt;GestionMatriculasContext -->
<g id="edge7" class="edge">
<title>GestionPagosContext&#45;&gt;GestionMatriculasContext</title>
<path fill="none" stroke="black" stroke-width="2" d="M988.73,-444.34C988.73,-426.92 988.73,-406.53 988.73,-388.57"/>
<text text-anchor="middle" x="1064.23" y="-410.62" font-family="sans-serif" font-size="12.00"> &#160;&#160;&#160;&#160;&#160;&#160;&#160;&#160;&#160;&#160;&#160;&#160;&#160;&#160;&#160;&#160;&#160;&#160;&#160;&#160;&#160;&#160;&#160;&#160;&#160;&#160;&#160;&#160;&#160;&#160;&#160;&#160;&#160;&#160;&#160;&#160;&#160;&#160;&#160;</text>
<polygon fill="white" stroke="transparent" points="969.73,-378.57 969.73,-397.57 985.73,-397.57 985.73,-378.57 969.73,-378.57"/>
<polyline fill="none" stroke="black" points="985.73,-378.57 985.73,-397.57 "/>
<text text-anchor="start" x="972.73" y="-384.97" font-family="sans-serif" font-size="12.00">D</text>
<polygon fill="white" stroke="transparent" points="985.73,-378.57 985.73,-397.57 1007.73,-397.57 1007.73,-378.57 985.73,-378.57"/>
<polygon fill="none" stroke="black" points="985.73,-378.57 985.73,-397.57 1007.73,-397.57 1007.73,-378.57 985.73,-378.57"/>
<text text-anchor="start" x="988.73" y="-384.97" font-family="sans-serif" font-size="12.00">CF</text>
<polygon fill="white" stroke="transparent" points="953.73,-434.34 953.73,-453.34 969.73,-453.34 969.73,-434.34 953.73,-434.34"/>
<polyline fill="none" stroke="black" points="969.73,-434.34 969.73,-453.34 "/>
<text text-anchor="start" x="956.73" y="-440.74" font-family="sans-serif" font-size="12.00">U</text>
<polygon fill="white" stroke="transparent" points="969.73,-434.34 969.73,-453.34 1024.73,-453.34 1024.73,-434.34 969.73,-434.34"/>
<polygon fill="none" stroke="black" points="969.73,-434.34 969.73,-453.34 1024.73,-453.34 1024.73,-434.34 969.73,-434.34"/>
<text text-anchor="start" x="972.73" y="-440.74" font-family="sans-serif" font-size="12.00">OHS, PL</text>
</g>
</g>
</svg>
